Coordinates
version=1
nRows=42
nColumns=38
inDegrees=no

Units are S.I. units (second, meters, Newtons, ...)
If the header above contains a line with 'inDegrees', this indicates whether rotational values are in degrees (yes) or radians (no).

endheader
time	pelvis_tilt	pelvis_list	pelvis_rotation	pelvis_tx	pelvis_ty	pelvis_tz	hip_flexion_r	hip_adduction_r	hip_rotation_r	knee_angle_r	ankle_angle_r	subtalar_angle_r	mtp_angle_r	hip_flexion_l	hip_adduction_l	hip_rotation_l	knee_angle_l	ankle_angle_l	subtalar_angle_l	mtp_angle_l	lumbar_extension	lumbar_bending	lumbar_rotation	arm_flex_r	arm_add_r	arm_rot_r	elbow_flex_r	pro_sup_r	wrist_flex_r	wrist_dev_r	arm_flex_l	arm_add_l	arm_rot_l	elbow_flex_l	pro_sup_l	wrist_flex_l	wrist_dev_l
1.45	3.01072	1.24102	-1.46509	0.966154	0.822533	0.991448	-0.0675429	0.0563321	-0.149317	0.465091	0.0808199	0	0	-0.0385214	-0.145331	-0.146909	0.966697	0.185843	0	0	-0.454435	0.109098	0.14427	0.267164	-0.423117	0.00428027	1.26616	0.956578	0	0	0.151568	-0.244423	-0.164747	1.28986	1.01485	0	0
1.46	3.01823	1.23993	-1.48133	0.967072	0.830744	0.992494	-0.0808617	0.0538621	-0.140902	0.46038	0.0874633	0	0	-0.0294536	-0.142708	-0.158202	0.93477	0.18806	0	0	-0.459663	0.103093	0.150364	0.275456	-0.424656	0.00998072	1.26246	0.959462	0	0	0.155279	-0.24373	-0.164826	1.28706	1.01893	0	0
1.47	3.01601	1.24017	-1.48576	0.967684	0.839314	0.993072	-0.0930021	0.0543022	-0.135972	0.45526	0.0942818	0	0	-0.0168772	-0.154972	-0.191053	0.908253	0.191155	0	0	-0.461733	0.101321	0.155359	0.28224	-0.426915	0.0155104	1.25967	0.958387	0	0	0.15749	-0.242967	-0.163676	1.28474	1.01662	0	0
1.48	3.02271	1.24002	-1.4984	0.968226	0.84744	0.99377	-0.104946	0.0514807	-0.130656	0.451199	0.101021	0	0	-0.00754717	-0.152651	-0.20212	0.872285	0.19164	0	0	-0.465289	0.0962422	0.158916	0.290502	-0.428059	0.0207153	1.2551	0.959185	0	0	0.161286	-0.242679	-0.163018	1.28148	1.01762	0	0
1.49	3.0295	1.24017	-1.50993	0.968615	0.855573	0.994329	-0.116258	0.0483295	-0.127055	0.447713	0.108261	0	0	0.00144629	-0.14996	-0.21225	0.83496	0.192418	0	0	-0.468231	0.0914495	0.161159	0.298692	-0.428773	0.0256955	1.25001	0.960741	0	0	0.164827	-0.242333	-0.163012	1.27872	1.01953	0	0
1.5	3.03669	1.23977	-1.52209	0.968959	0.863687	0.994858	-0.127661	0.0447571	-0.122459	0.444915	0.115916	0	0	0.0083328	-0.146821	-0.223123	0.795511	0.19242	0	0	-0.471547	0.0863748	0.163316	0.306975	-0.42969	0.0322054	1.24474	0.955299	0	0	0.168242	-0.241906	-0.163134	1.27614	1.0174	0	0
1.51	3.04051	1.24099	-1.52871	0.969054	0.871881	0.995101	-0.136754	0.0422983	-0.119195	0.443347	0.12339	0	0	0.0174461	-0.144729	-0.231661	0.756983	0.194243	0	0	-0.47274	0.0832654	0.163999	0.313763	-0.429942	0.0359921	1.24044	0.957685	0	0	0.171204	-0.241146	-0.163633	1.27346	1.01959	0	0
1.52	3.04623	1.24198	-1.53724	0.969079	0.880133	0.995268	-0.145833	0.0390753	-0.115909	0.442511	0.131125	0	0	0.0248494	-0.141484	-0.241409	0.715532	0.194573	0	0	-0.474131	0.0794227	0.164484	0.320146	-0.430097	0.0393843	1.23633	0.959908	0	0	0.174069	-0.240633	-0.164058	1.27112	1.02082	0	0
1.53	3.05123	1.24319	-1.54429	0.969004	0.888448	0.995262	-0.154315	0.0361045	-0.113607	0.442416	0.139155	0	0	0.0318976	-0.138155	-0.250476	0.673183	0.194351	0	0	-0.474895	0.0759563	0.164345	0.325808	-0.429978	0.0424709	1.23269	0.961662	0	0	0.177045	-0.240637	-0.163615	1.26876	1.02074	0	0
1.54	3.05585	1.2443	-1.55041	0.968869	0.896833	0.995134	-0.162722	0.0332143	-0.112245	0.442862	0.147429	0	0	0.0378194	-0.134494	-0.25899	0.629309	0.193389	0	0	-0.475595	0.0725533	0.164044	0.330489	-0.429641	0.0447788	1.22971	0.962466	0	0	0.180486	-0.241364	-0.1618	1.26652	1.01877	0	0
1.55	3.0593	1.24577	-1.55436	0.968601	0.905267	0.994848	-0.170887	0.0307974	-0.112034	0.443251	0.155635	0	0	0.0437028	-0.130809	-0.266125	0.585149	0.192765	0	0	-0.47583	0.069786	0.163337	0.334192	-0.429822	0.046659	1.22766	0.961452	0	0	0.184301	-0.242836	-0.159132	1.26388	1.01767	0	0
1.56	3.0637	1.24698	-1.55848	0.968206	0.913746	0.994492	-0.179425	0.027875	-0.113527	0.443762	0.16471	0	0	0.0482194	-0.125982	-0.272646	0.538739	0.190965	0	0	-0.476274	0.0668442	0.161827	0.337721	-0.430446	0.0495652	1.22591	0.954546	0	0	0.188145	-0.245323	-0.155153	1.26184	1.01253	0	0
1.57	3.06623	1.24907	-1.55978	0.967679	0.92232	0.99395	-0.1871	0.02561	-0.116214	0.444434	0.173831	0	0	0.0532273	-0.121355	-0.278041	0.492005	0.18966	0	0	-0.475626	0.0648029	0.159291	0.340661	-0.430406	0.0518644	1.22475	0.951545	0	0	0.191406	-0.24755	-0.152393	1.26044	1.01055	0	0
1.58	3.06532	1.25214	-1.55752	0.967092	0.931059	0.993202	-0.194074	0.024585	-0.118842	0.444623	0.182781	0	0	0.058769	-0.117759	-0.283218	0.445649	0.189759	0	0	-0.473688	0.0639026	0.156561	0.342607	-0.429808	0.0537003	1.22453	0.948113	0	0	0.193474	-0.249209	-0.151105	1.26008	1.00789	0	0
1.59	3.06743	1.25447	-1.55815	0.966382	0.939853	0.992471	-0.202047	0.0221299	-0.122492	0.444664	0.192172	0	0	0.0609876	-0.111421	-0.284613	0.394563	0.186902	0	0	-0.472731	0.061961	0.153219	0.344241	-0.427892	0.0526428	1.22344	0.956002	0	0	0.195236	-0.250232	-0.151511	1.26051	1.00832	0	0
1.6	3.06564	1.25784	-1.55507	0.965572	0.948753	0.991528	-0.209047	0.0209518	-0.12551	0.444506	0.201265	0	0	0.0637496	-0.106147	-0.284909	0.344013	0.185705	0	0	-0.470662	0.0613343	0.150571	0.344642	-0.426621	0.0516756	1.22366	0.955245	0	0	0.196803	-0.250768	-0.151905	1.26131	1.00671	0	0
1.61	3.06156	1.26182	-1.54975	0.964651	0.957734	0.990414	-0.215055	0.0201576	-0.12913	0.44529	0.210571	0	0	0.0665209	-0.10119	-0.282859	0.293553	0.184758	0	0	-0.467869	0.0615356	0.148616	0.344138	-0.426018	0.0504893	1.22486	0.953581	0	0	0.198643	-0.25147	-0.151588	1.2616	1.00705	0	0
1.62	3.05553	1.26593	-1.54238	0.963673	0.966873	0.989194	-0.221084	0.0198297	-0.13323	0.446188	0.219667	0	0	0.0680093	-0.0964009	-0.277182	0.241849	0.182749	0	0	-0.464554	0.0623835	0.147129	0.342731	-0.425717	0.0489691	1.22653	0.952096	0	0	0.200699	-0.252683	-0.149924	1.26101	1.00858	0	0
1.63	3.04871	1.26987	-1.5346	0.962653	0.97615	0.987921	-0.227569	0.0195845	-0.136966	0.446876	0.228274	0	0	0.0665818	-0.091158	-0.26698	0.186543	0.177591	0	0	-0.461075	0.0633447	0.146047	0.341128	-0.425294	0.0474916	1.22765	0.951219	0	0	0.202683	-0.254185	-0.147874	1.26023	1.01043	0	0
1.64	3.03885	1.27388	-1.52414	0.961632	0.985605	0.986558	-0.234314	0.0203239	-0.139729	0.446964	0.236662	0	0	0.0632792	-0.0868467	-0.252647	0.129794	0.169765	0	0	-0.457017	0.0650281	0.145203	0.339511	-0.424427	0.0460272	1.22792	0.950532	0	0	0.204167	-0.25578	-0.14628	1.2596	1.01148	0	0
1.65	3.0244	1.27822	-1.50986	0.96064	0.995229	0.985065	-0.240498	0.0222312	-0.141292	0.447352	0.244824	0	0	0.0595372	-0.0846176	-0.237163	0.0746282	0.161328	0	0	-0.452093	0.0676663	0.144778	0.338054	-0.423131	0.0450927	1.22725	0.949054	0	0	0.20523	-0.257061	-0.145217	1.25925	1.01061	0	0
1.66	3.00442	1.28298	-1.49092	0.95973	1.00501	0.983419	-0.245926	0.0256306	-0.14138	0.448186	0.252626	0	0	0.0584786	-0.0857213	-0.227308	0.0281702	0.15755	0	0	-0.446168	0.0713442	0.14508	0.336413	-0.421479	0.0444449	1.22613	0.946345	0	0	0.206145	-0.258251	-0.144375	1.25934	1.00843	0	0
1.67	2.98183	1.28724	-1.46992	0.958799	1.01494	0.981727	-0.251731	0.0294452	-0.14055	0.44931	0.260059	0	0	0.0579997	-0.0883922	-0.219972	0	0.155799	0	0	-0.440325	0.0754748	0.146139	0.334325	-0.419527	0.0426505	1.22476	0.948763	0	0	0.207671	-0.259232	-0.143592	1.25886	1.01169	0	0
1.68	2.96307	1.28752	-1.45168	0.957903	1.0243	0.980205	-0.26117	0.0335794	-0.138818	0.450827	0.266129	0	0	0.0735263	-0.0944018	-0.218585	0	0.161361	0	0	-0.439529	0.0784947	0.147936	0.331952	-0.417463	0.0385865	1.22376	0.953875	0	0	0.211847	-0.261222	-0.13886	1.25726	1.01351	0	0
1.69	2.94403	1.28847	-1.43371	0.956945	1.03404	0.978672	-0.26994	0.0367414	-0.13688	0.452714	0.271912	0	0	0.0830305	-0.100145	-0.222856	0	0.167736	0	0	-0.43742	0.0813989	0.150429	0.328999	-0.416035	0.0353101	1.22313	0.951418	0	0	0.215699	-0.263427	-0.133007	1.25543	1.01103	0	0
1.7	2.92575	1.28872	-1.4172	0.955927	1.04395	0.977192	-0.279116	0.0391506	-0.134586	0.455471	0.277198	0	0	0.0900034	-0.105412	-0.227873	0	0.172445	0	0	-0.435811	0.0839967	0.153495	0.326211	-0.414976	0.0327248	1.22241	0.946334	0	0	0.219168	-0.265556	-0.12695	1.25298	1.0063	0	0
1.71	2.90918	1.28834	-1.40306	0.95486	1.05403	0.975784	-0.288625	0.0405994	-0.132037	0.459198	0.28198	0	0	0.0943647	-0.109959	-0.233667	0	0.175717	0	0	-0.434741	0.0860081	0.156597	0.324137	-0.414122	0.0318298	1.22103	0.937191	0	0	0.222027	-0.26727	-0.121944	1.25046	0.997677	0	0
1.72	2.89505	1.28758	-1.39197	0.953712	1.0643	0.974435	-0.298481	0.0408839	-0.129239	0.463531	0.286309	0	0	0.0961968	-0.113545	-0.239912	0	0.178818	0	0	-0.434027	0.0872381	0.159383	0.322941	-0.413728	0.0330168	1.21942	0.923518	0	0	0.224341	-0.268593	-0.118193	1.24883	0.985213	0	0
1.73	2.88255	1.28783	-1.38331	0.952486	1.07483	0.973024	-0.306592	0.0397296	-0.126541	0.469775	0.290906	0	0	0.0969909	-0.116136	-0.247279	0	0.181273	0	0	-0.432038	0.0876511	0.16221	0.32162	-0.414391	0.0373538	1.2183	0.903788	0	0	0.226243	-0.270329	-0.113556	1.24746	0.966473	0	0
1.74	2.86019	1.30145	-1.36591	0.950967	1.08584	0.970322	-0.294262	0.0358096	-0.129538	0.489877	0.304904	0	0	0.111722	-0.117944	-0.258548	0	0.184172	0	0	-0.413772	0.0891056	0.165766	0.316675	-0.427671	0.0675747	1.22236	0.881965	0	0	0.225874	-0.274115	-0.100454	1.24318	0.941634	0	0
1.75	2.86431	1.28602	-1.37356	0.949854	1.09666	0.970488	-0.325898	0.035282	-0.118419	0.482107	0.29674	0	0	0.0895789	-0.118735	-0.261912	0	0.18176	0	0	-0.430444	0.0862947	0.168748	0.317018	-0.410291	0.0309488	1.21582	0.905726	0	0	0.230823	-0.272816	-0.107984	1.24342	0.967089	0	0
1.76	2.85993	1.28469	-1.37511	0.948569	1.10798	0.969295	-0.33556	0.0310385	-0.111708	0.490107	0.298405	0	0	0.0817503	-0.118244	-0.270453	0	0.180461	0	0	-0.430002	0.0834279	0.174531	0.31268	-0.404096	0.012941	1.21244	0.974983	0	0	0.23464	-0.272329	-0.108661	1.23774	1.01383	0	0
1.77	2.85629	1.28483	-1.37883	0.947335	1.1196	0.967882	-0.341974	0.0253884	-0.103932	0.502289	0.300134	0	0	0.0731527	-0.116903	-0.279588	0	0.178752	0	0	-0.427415	0.0796044	0.180586	0.308497	-0.40259	0.00873323	1.21222	0.976118	0	0	0.236705	-0.274812	-0.10291	1.23482	1.01059	0	0
1.78	2.851	1.28612	-1.38251	0.946058	1.13173	0.966344	-0.345988	0.0175722	-0.0963686	0.517292	0.302232	0	0	0.0581635	-0.113848	-0.288405	0	0.17802	0	0	-0.42275	0.0758099	0.186489	0.304554	-0.401094	0.00664457	1.21195	0.976422	0	0	0.23657	-0.277362	-0.0993743	1.23306	1.00855	0	0
1.79	2.85538	1.2845	-1.39382	0.944796	1.1435	0.964903	-0.351393	0.00930572	-0.0889952	0.536025	0.302654	0	0	0.0532628	-0.112718	-0.296135	0.0108737	0.183	0	0	-0.422088	0.0697254	0.189879	0.301922	-0.399485	0.00705601	1.21172	0.973432	0	0	0.235983	-0.279995	-0.0985597	1.23286	1.01165	0	0
1.8	2.86197	1.2836	-1.4092	0.94359	1.15544	0.963342	-0.352973	-0.00103631	-0.0798527	0.560926	0.302572	0	0	0.0490698	-0.110983	-0.312591	0.035023	0.19052	0	0	-0.420533	0.062229	0.193799	0.299655	-0.396742	0.00631862	1.21091	0.978984	0	0	0.233491	-0.283037	-0.0976844	1.23454	1.00379	0	0
1.81	2.87154	1.28313	-1.42734	0.942153	1.16745	0.961741	-0.350717	-0.0131245	-0.0704396	0.592307	0.299902	0	0	0.042498	-0.10679	-0.325547	0.0473813	0.180456	0	0	-0.418618	0.0540164	0.196373	0.298113	-0.39328	0.00565753	1.20973	0.979969	0	0	0.229498	-0.285422	-0.0991743	1.23773	0.999494	0	0
1.82	2.88334	1.28437	-1.44612	0.940431	1.17922	0.960135	-0.342129	-0.0257043	-0.0602206	0.631337	0.292663	0	0	0.0386963	-0.101896	-0.337333	0.0557139	0.146655	0	0	-0.415666	0.0452966	0.197018	0.297297	-0.389085	0.00414644	1.20833	0.978046	0	0	0.225308	-0.287472	-0.101534	1.24197	0.995796	0	0
1.83	2.90198	1.28814	-1.46934	0.938453	1.19048	0.958767	-0.325277	-0.0393086	-0.0489247	0.67885	0.278245	0	0	0.042321	-0.0970152	-0.352467	0.0714706	0.10037	0	0	-0.411644	0.0346356	0.195611	0.297178	-0.383721	-0.000392774	1.20546	0.993233	0	0	0.222856	-0.289302	-0.103467	1.24532	0.99754	0	0
1.84	2.93278	1.29294	-1.50331	0.936396	1.20122	0.957987	-0.301699	-0.0553661	-0.0366512	0.733647	0.25446	0	0	0.0515771	-0.0913467	-0.369508	0.0997747	0.0661422	0	0	-0.40827	0.0206415	0.193546	0.2973	-0.379668	-0.00294931	1.20313	0.991182	0	0	0.223255	-0.291683	-0.102481	1.24669	0.99737	0	0
1.85	2.97246	1.29774	-1.54679	0.934523	1.21166	0.957771	-0.273034	-0.0730037	-0.0220023	0.792936	0.222191	0	0	0.064221	-0.0860051	-0.389001	0.140932	0.0569844	0	0	-0.405692	0.00412814	0.193417	0.296499	-0.376428	-0.00665937	1.20122	0.994042	0	0	0.226392	-0.294277	-0.0987562	1.24544	0.998147	0	0
1.86	3.01324	1.30129	-1.59333	0.932974	1.22202	0.95792	-0.242326	-0.0895483	-0.00349391	0.853158	0.181571	0	0	0.0753874	-0.0817881	-0.408928	0.185031	0.0595835	0	0	-0.404267	-0.0128286	0.196409	0.294287	-0.374355	-0.0106365	1.2011	0.994926	0	0	0.230417	-0.296621	-0.0939337	1.24351	0.999534	0	0
